<svg width="200" height="40" viewBox="0 0 200 40" fill="none" xmlns="http://www.w3.org/2000/svg">
<g clip-path="url(#clip0_506_57287)">
<path d="M12.8799 35.043C10.7651 38.1444 7.25386 40 3.5 40H0V29H17L12.8799 35.043ZM34 29H17L21.1201 22.957C23.2349 19.8556 26.7461 18 30.5 18H34V29ZM12.8799 17.043C10.7651 20.1444 7.25386 22 3.5 22H0V11H17L12.8799 17.043ZM50 11H17L21.1201 4.95703C23.2349 1.85557 26.7461 1.44571e-05 30.5 0H50V11Z" fill="url(#paint0_linear_506_57287)"/>
<path d="M188.038 31.6465H179.213V8.54996H188.038C195.45 8.54996 200 12.859 200 20.0982C200 27.3374 195.45 31.6465 188.038 31.6465ZM187.969 13.2037H184.384V26.9927H187.969C192.657 26.9927 194.45 25.5793 194.45 20.0982C194.45 14.6171 192.657 13.2037 187.969 13.2037Z" fill="black"/>
<path d="M161.125 31.6465H155.955V8.54996H161.47L168.951 20.1327L170.881 23.2352H171.226L171.157 20.1327V8.54996H176.328V31.6465H170.812L163.642 20.7187L161.401 17.1681H161.057L161.125 20.7187V31.6465Z" fill="black"/>
<path d="M146.314 31.6465H141.143V13.2037H133.697V8.54996H153.76V13.2037H146.314V31.6465Z" fill="black"/>
<path d="M123.876 31.9912C117.085 31.9912 113.948 29.2334 113.948 24.1315V23.6833H119.016V24.0281C119.016 26.579 119.946 27.3029 124.118 27.3029C127.048 27.3029 127.772 26.7169 127.772 25.1657C127.772 23.6144 127.427 23.0628 124.186 22.5113L120.119 21.7874C115.706 21.029 113.845 18.7883 113.845 15.2031C113.845 11.6869 116.43 8.20523 123.049 8.20523C129.633 8.20523 132.391 11.618 132.391 16.2028V16.4786H127.289V16.0994C127.289 13.6863 126.289 12.8935 122.876 12.8935C119.912 12.8935 118.981 13.5485 118.981 14.9963C118.981 16.4786 119.602 16.8233 122.29 17.3404L126.393 18.1333C131.253 19.064 132.908 21.615 132.908 24.9933C132.908 28.6818 130.426 31.9912 123.876 31.9912Z" fill="black"/>
<path d="M93.3772 31.6465H87.9995L96.5142 8.54996H104.029L112.544 31.6465H106.925L105.063 26.5101H95.2732L93.3772 31.6465ZM98.2723 18.3056L96.9623 21.8908H103.374L102.064 18.3056L100.375 13.1003H100.03L98.2723 18.3056Z" fill="black"/>
<path d="M75.273 31.6465H70.1022V8.54996H87.4418V13.2037H75.273V18.478H86.9247V23.0973H75.273V31.6465Z" fill="black"/>
</g>
<defs>
<linearGradient id="paint0_linear_506_57287" x1="25" y1="0" x2="25" y2="40" gradientUnits="userSpaceOnUse">
<stop stop-color="#0073E6"/>
<stop offset="1" stop-color="#48C5EF"/>
</linearGradient>
<clipPath id="clip0_506_57287">
<rect width="200" height="40" fill="white"/>
</clipPath>
</defs>
</svg>
