<svg width="196" height="157" xmlns="http://www.w3.org/2000/svg" xmlns:xlink="http://www.w3.org/1999/xlink" xml:space="preserve" overflow="hidden"><defs><clipPath id="clip0"><rect x="526" y="29" width="196" height="157"/></clipPath><clipPath id="clip1"><rect x="526" y="29" width="196" height="157"/></clipPath><clipPath id="clip2"><rect x="527" y="30" width="195" height="156"/></clipPath><clipPath id="clip3"><rect x="527" y="30" width="195" height="156"/></clipPath><linearGradient x1="97.5" y1="0" x2="97.5" y2="156" gradientUnits="userSpaceOnUse" spreadMethod="pad" id="fill4"><stop offset="0" stop-color="#0073E6" stop-opacity="1"/><stop offset="1" stop-color="#48C5EF" stop-opacity="1"/></linearGradient></defs><g clip-path="url(#clip0)" transform="translate(-526 -29)"><g clip-path="url(#clip1)"><g clip-path="url(#clip2)"><g clip-path="url(#clip3)"><g><g><path d="M50.2316 136.668C41.9839 148.763 28.2901 156 13.65 156L0 156 0 113.1 66.3 113.1 50.2316 136.668ZM132.6 113.1 66.3 113.1 82.3684 89.5323C90.6161 77.4368 104.31 70.2 118.95 70.2L132.6 70.2 132.6 113.1ZM50.2316 66.4677C41.9839 78.5632 28.2901 85.8 13.65 85.8L0 85.8 0 42.9 66.3 42.9 50.2316 66.4677ZM195 42.9 66.3 42.9 82.3684 19.3324C90.6161 7.23672 104.31 5.63827e-05 118.95 0L195 0 195 42.9Z" fill="url(#fill4)" fill-rule="nonzero" transform="matrix(1.00016 0 0 1 527 30)"/><path d="M733.348 123.421 698.931 123.421 698.931 33.3448 733.348 33.3448C762.255 33.3448 780 50.1501 780 78.383 780 106.616 762.255 123.421 733.348 123.421ZM733.079 51.4944 719.098 51.4944 719.098 105.272 733.079 105.272C751.362 105.272 758.355 99.7593 758.355 78.383 758.355 57.0067 751.362 51.4944 733.079 51.4944Z" fill="#000000" fill-rule="nonzero" fill-opacity="1" transform="matrix(1.00016 0 0 1 527 30)"/><path d="M628.388 123.421 608.225 123.421 608.225 33.3448 629.733 33.3448 658.909 78.5175 666.436 90.6173 667.781 90.6173 667.512 78.5175 667.512 33.3448 687.679 33.3448 687.679 123.421 666.167 123.421 638.204 80.8029 629.464 66.9556 628.122 66.9556 628.388 80.8029 628.388 123.421Z" fill="#000000" fill-rule="nonzero" fill-opacity="1" transform="matrix(1.00016 0 0 1 527 30)"/><path d="M570.625 123.421 550.458 123.421 550.458 51.4944 521.418 51.4944 521.418 33.3448 599.664 33.3448 599.664 51.4944 570.625 51.4944 570.625 123.421Z" fill="#000000" fill-rule="nonzero" fill-opacity="1" transform="matrix(1.00016 0 0 1 527 30)"/><path d="M483.116 124.766C456.632 124.766 444.397 114.01 444.397 94.1129L444.397 92.3649 464.162 92.3649 464.162 93.7096C464.162 103.658 467.789 106.481 484.06 106.481 495.487 106.481 498.311 104.196 498.311 98.1462 498.311 92.0962 496.965 89.9449 484.325 87.7941L468.464 84.9709C451.253 82.0131 443.996 73.2744 443.996 59.2921 443.996 45.5789 454.077 32.0004 479.891 32.0004 505.569 32.0004 516.325 45.3102 516.325 63.1909L516.325 64.2665 496.427 64.2665 496.427 62.7877C496.427 53.3766 492.527 50.2847 479.216 50.2847 467.657 50.2847 464.026 52.8392 464.026 58.4856 464.026 64.2665 466.448 65.6109 476.931 67.6276L492.933 70.7199C511.887 74.3496 518.341 84.2985 518.341 97.4739 518.341 111.859 508.661 124.766 483.116 124.766Z" fill="#000000" fill-rule="nonzero" fill-opacity="1" transform="matrix(1.00016 0 0 1 527 30)"/><path d="M364.171 123.421 343.198 123.421 376.405 33.3448 405.713 33.3448 438.922 123.421 417.008 123.421 409.746 103.389 371.565 103.389 364.171 123.421ZM383.262 71.3918 378.153 85.3741 403.159 85.3741 398.05 71.3918 391.463 51.0912 390.117 51.0912 383.262 71.3918Z" fill="#000000" fill-rule="nonzero" fill-opacity="1" transform="matrix(1.00016 0 0 1 527 30)"/><path d="M293.565 123.421 273.399 123.421 273.399 33.3448 341.023 33.3448 341.023 51.4944 293.565 51.4944 293.565 72.0642 339.006 72.0642 339.006 90.0795 293.565 90.0795 293.565 123.421Z" fill="#000000" fill-rule="nonzero" fill-opacity="1" transform="matrix(1.00016 0 0 1 527 30)"/></g></g></g></g></g></g></svg>