<svg width="200" height="40" viewBox="0 0 200 40" fill="none" xmlns="http://www.w3.org/2000/svg">
<g clip-path="url(#clip0_260_13120)">
<path d="M0 11H17L12.88 17.0426C10.7652 20.1443 7.25397 22 3.49999 22H0V11Z" fill="#0073E6"/>
<path d="M0 29H17L12.88 35.0426C10.7652 38.1443 7.25397 40 3.49999 40H0V29Z" fill="#0073E6"/>
<path d="M34 29H17L21.12 22.9574C23.2348 19.8557 26.746 18 30.5 18H34V29Z" fill="#0073E6"/>
<path d="M50 11H17.0001L21.12 4.95737C23.2348 1.85574 26.7461 2.57492e-05 30.5 2.57492e-05H50V11Z" fill="#0073E6"/>
<path d="M75.2156 31.5181H70.1022V8.67835H87.249V13.2804H75.2156V18.496H86.7377V23.064H75.2156V31.5181ZM93.1185 31.5181H87.8006L96.2206 8.67835H103.652L112.072 31.5181H106.516L104.675 26.4388H94.9934L93.1185 31.5181ZM97.9591 18.3256L96.6637 21.8708H103.004L101.709 18.3256L100.039 13.1781H99.6977L97.9591 18.3256ZM123.278 31.859C116.563 31.859 113.461 29.1318 113.461 24.0866V23.6435H118.472V23.9844C118.472 26.507 119.392 27.2228 123.517 27.2228C126.415 27.2228 127.13 26.6433 127.13 25.1093C127.13 23.5753 126.789 23.0299 123.585 22.4844L119.563 21.7686C115.199 21.0186 113.358 18.8028 113.358 15.2576C113.358 11.7805 115.915 8.33746 122.46 8.33746C128.971 8.33746 131.698 11.7123 131.698 16.2461V16.5188H126.653V16.1439C126.653 13.7576 125.665 12.9736 122.29 12.9736C119.358 12.9736 118.438 13.6213 118.438 15.053C118.438 16.5188 119.051 16.8597 121.71 17.3711L125.767 18.1551C130.573 19.0755 132.21 21.5981 132.21 24.9389C132.21 28.5864 129.755 31.859 123.278 31.859ZM145.467 31.5181H140.353V13.2804H132.99V8.67835H152.83V13.2804H145.467V31.5181ZM160.135 31.5181H155.021V8.67835H160.476L167.873 20.1323L169.782 23.2003H170.123L170.055 20.1323V8.67835H175.168V31.5181H169.714L162.623 20.7118L160.407 17.2006H160.067L160.135 20.7118V31.5181ZM188.207 31.5181H179.48V8.67835H188.207C195.536 8.67835 200.036 12.9395 200.036 20.0982C200.036 27.2569 195.536 31.5181 188.207 31.5181ZM188.139 13.2804H184.594V26.916H188.139C192.775 26.916 194.548 25.5184 194.548 20.0982C194.548 14.678 192.775 13.2804 188.139 13.2804Z" fill="black"/>
</g>
<defs>
<clipPath id="clip0_260_13120">
<rect width="200" height="40" fill="white"/>
</clipPath>
</defs>
</svg>
